<mxfile host="Electron" modified="2023-05-20T13:50:04.150Z" agent="Mozilla/5.0 (Macintosh; Intel Mac OS X 10_15_7) AppleWebKit/537.36 (KHTML, like Gecko) draw.io/21.2.8 Chrome/112.0.5615.165 Electron/24.2.0 Safari/537.36" etag="d20s538DzmiZ3xGKyG6A" version="21.2.8" type="device">
  <diagram id="C5RBs43oDa-KdzZeNtuy" name="Page-1">
    <mxGraphModel dx="3003" dy="3075" grid="1" gridSize="10" guides="1" tooltips="1" connect="1" arrows="1" fold="1" page="1" pageScale="1" pageWidth="827" pageHeight="1169" math="0" shadow="0">
      <root>
        <mxCell id="WIyWlLk6GJQsqaUBKTNV-0" />
        <mxCell id="WIyWlLk6GJQsqaUBKTNV-1" parent="WIyWlLk6GJQsqaUBKTNV-0" />
        <mxCell id="TTDjhxrWsNiH2mOFPJnT-5" value="&lt;p style=&quot;margin: 4px 0px 0px; text-align: center; font-size: 40px;&quot;&gt;&lt;b style=&quot;&quot;&gt;&lt;font style=&quot;font-size: 40px;&quot;&gt;&amp;lt;&amp;lt;entity&amp;gt;&amp;gt;&lt;/font&gt;&lt;/b&gt;&lt;/p&gt;&lt;p style=&quot;margin: 4px 0px 0px; text-align: center; font-size: 40px;&quot;&gt;&lt;b style=&quot;&quot;&gt;&lt;font style=&quot;font-size: 40px;&quot;&gt;Member&lt;/font&gt;&lt;/b&gt;&lt;/p&gt;&lt;hr style=&quot;font-size: 40px;&quot; size=&quot;1&quot;&gt;&lt;p style=&quot;border-color: var(--border-color); margin: 0px 0px 0px 4px; font-size: 40px;&quot;&gt;&lt;font style=&quot;font-size: 40px;&quot;&gt;id&lt;/font&gt;&lt;/p&gt;&lt;p style=&quot;border-color: var(--border-color); margin: 0px 0px 0px 4px; font-size: 40px;&quot;&gt;&lt;span style=&quot;border-color: var(--border-color);&quot;&gt;&lt;font style=&quot;font-size: 40px;&quot;&gt;password&lt;/font&gt;&lt;/span&gt;&lt;/p&gt;&lt;p style=&quot;border-color: var(--border-color); margin: 0px 0px 0px 4px; font-size: 40px;&quot;&gt;&lt;span style=&quot;border-color: var(--border-color);&quot;&gt;&lt;font style=&quot;font-size: 40px;&quot;&gt;name&lt;/font&gt;&lt;/span&gt;&lt;/p&gt;&lt;p style=&quot;border-color: var(--border-color); margin: 0px 0px 0px 4px; font-size: 40px;&quot;&gt;&lt;span style=&quot;border-color: var(--border-color);&quot;&gt;&lt;font style=&quot;font-size: 40px;&quot;&gt;residentNumber&lt;/font&gt;&lt;/span&gt;&lt;/p&gt;&lt;p style=&quot;border-color: var(--border-color); margin: 0px 0px 0px 4px; font-size: 40px;&quot;&gt;&lt;span style=&quot;border-color: var(--border-color);&quot;&gt;&lt;font style=&quot;font-size: 40px;&quot;&gt;address&lt;/font&gt;&lt;/span&gt;&lt;/p&gt;&lt;p style=&quot;border-color: var(--border-color); margin: 0px 0px 0px 4px; font-size: 40px;&quot;&gt;&lt;span style=&quot;border-color: var(--border-color);&quot;&gt;&lt;font style=&quot;font-size: 40px;&quot;&gt;phone&lt;/font&gt;&lt;/span&gt;&lt;/p&gt;&lt;p style=&quot;border-color: var(--border-color); margin: 0px 0px 0px 4px; font-size: 40px;&quot;&gt;&lt;span style=&quot;border-color: var(--border-color);&quot;&gt;&lt;font style=&quot;font-size: 40px;&quot;&gt;companyName&lt;/font&gt;&lt;/span&gt;&lt;/p&gt;&lt;p style=&quot;border-color: var(--border-color); margin: 0px 0px 0px 4px; font-size: 40px;&quot;&gt;&lt;span style=&quot;border-color: var(--border-color);&quot;&gt;&lt;font style=&quot;font-size: 40px;&quot;&gt;businessNumber&lt;/font&gt;&lt;/span&gt;&lt;/p&gt;&lt;p style=&quot;border-color: var(--border-color); margin: 0px 0px 0px 4px; font-size: 40px;&quot;&gt;&lt;span style=&quot;border-color: var(--border-color);&quot;&gt;&lt;font style=&quot;font-size: 40px;&quot;&gt;businessField&lt;/font&gt;&lt;/span&gt;&lt;/p&gt;&lt;hr style=&quot;font-size: 40px;&quot; size=&quot;1&quot;&gt;&lt;p style=&quot;margin: 0px 0px 0px 4px; font-size: 40px;&quot;&gt;&lt;font style=&quot;font-size: 40px;&quot;&gt;setLogin()&lt;/font&gt;&lt;/p&gt;&lt;p style=&quot;margin: 0px 0px 0px 4px; font-size: 40px;&quot;&gt;&lt;font style=&quot;font-size: 40px;&quot;&gt;setLogout()&lt;/font&gt;&lt;/p&gt;&lt;p style=&quot;margin: 0px 0px 0px 4px; font-size: 40px;&quot;&gt;&lt;font style=&quot;font-size: 40px;&quot;&gt;deleteMember()&lt;/font&gt;&lt;/p&gt;" style="verticalAlign=top;align=left;overflow=fill;fontSize=12;fontFamily=Helvetica;html=1;whiteSpace=wrap;" parent="WIyWlLk6GJQsqaUBKTNV-1" vertex="1">
          <mxGeometry x="2750" y="2000" width="920" height="780" as="geometry" />
        </mxCell>
        <mxCell id="TTDjhxrWsNiH2mOFPJnT-6" value="Control Object" style="ellipse;shape=umlControl;whiteSpace=wrap;html=1;" parent="WIyWlLk6GJQsqaUBKTNV-1" vertex="1">
          <mxGeometry x="3010" y="1640" width="60" height="65" as="geometry" />
        </mxCell>
        <mxCell id="TTDjhxrWsNiH2mOFPJnT-7" value="Boundary Object" style="shape=umlBoundary;whiteSpace=wrap;html=1;" parent="WIyWlLk6GJQsqaUBKTNV-1" vertex="1">
          <mxGeometry x="2010" y="1645" width="70" height="60" as="geometry" />
        </mxCell>
        <mxCell id="TTDjhxrWsNiH2mOFPJnT-9" value="Entity Object" style="ellipse;shape=umlEntity;whiteSpace=wrap;html=1;" parent="WIyWlLk6GJQsqaUBKTNV-1" vertex="1">
          <mxGeometry x="2460" y="2190" width="80" height="80" as="geometry" />
        </mxCell>
        <mxCell id="xT75n4aC4hPQkBySnX-0-0" value="&lt;p style=&quot;margin: 4px 0px 0px; text-align: center; font-size: 40px;&quot;&gt;&lt;b style=&quot;&quot;&gt;&lt;font style=&quot;font-size: 40px;&quot;&gt;&amp;lt;&amp;lt;boundary&amp;gt;&amp;gt;&lt;/font&gt;&lt;/b&gt;&lt;/p&gt;&lt;p style=&quot;margin: 4px 0px 0px; text-align: center; font-size: 40px;&quot;&gt;&lt;b style=&quot;&quot;&gt;&lt;font style=&quot;font-size: 40px;&quot;&gt;Controll::RegisterUI&lt;/font&gt;&lt;/b&gt;&lt;/p&gt;&lt;hr style=&quot;font-size: 40px;&quot; size=&quot;1&quot;&gt;&lt;p style=&quot;margin: 0px 0px 0px 4px; font-size: 40px;&quot;&gt;&lt;/p&gt;&lt;p style=&quot;margin: 0px 0px 0px 4px; font-size: 40px;&quot;&gt;&lt;font style=&quot;font-size: 40px;&quot;&gt;selectResister()&lt;/font&gt;&lt;/p&gt;&lt;p style=&quot;margin: 0px 0px 0px 4px; font-size: 40px;&quot;&gt;&lt;br&gt;&lt;/p&gt;" style="verticalAlign=top;align=left;overflow=fill;fontSize=12;fontFamily=Helvetica;html=1;whiteSpace=wrap;" vertex="1" parent="WIyWlLk6GJQsqaUBKTNV-1">
          <mxGeometry x="1290" y="990" width="870" height="370" as="geometry" />
        </mxCell>
        <mxCell id="xT75n4aC4hPQkBySnX-0-1" value="&lt;p style=&quot;margin: 4px 0px 0px; text-align: center; font-size: 40px;&quot;&gt;&lt;b style=&quot;&quot;&gt;&lt;font style=&quot;font-size: 40px;&quot;&gt;&amp;lt;&amp;lt;controll&amp;gt;&amp;gt;&lt;/font&gt;&lt;/b&gt;&lt;/p&gt;&lt;p style=&quot;margin: 4px 0px 0px; text-align: center; font-size: 40px;&quot;&gt;&lt;b style=&quot;&quot;&gt;&lt;font style=&quot;font-size: 40px;&quot;&gt;Controll::Register&lt;/font&gt;&lt;/b&gt;&lt;/p&gt;&lt;hr style=&quot;font-size: 40px;&quot; size=&quot;1&quot;&gt;&lt;p style=&quot;margin: 0px 0px 0px 4px; font-size: 40px;&quot;&gt;&lt;/p&gt;&lt;p style=&quot;margin: 0px 0px 0px 4px; font-size: 40px;&quot;&gt;&lt;font style=&quot;font-size: 40px;&quot;&gt;register()&lt;/font&gt;&lt;/p&gt;" style="verticalAlign=top;align=left;overflow=fill;fontSize=12;fontFamily=Helvetica;html=1;whiteSpace=wrap;" vertex="1" parent="WIyWlLk6GJQsqaUBKTNV-1">
          <mxGeometry x="2270" y="990" width="870" height="370" as="geometry" />
        </mxCell>
        <mxCell id="xT75n4aC4hPQkBySnX-0-2" value="&lt;p style=&quot;margin: 4px 0px 0px; text-align: center; font-size: 40px;&quot;&gt;&lt;b style=&quot;&quot;&gt;&lt;font style=&quot;font-size: 40px;&quot;&gt;&amp;lt;&amp;lt;boundary&amp;gt;&amp;gt;&lt;/font&gt;&lt;/b&gt;&lt;/p&gt;&lt;p style=&quot;margin: 4px 0px 0px; text-align: center; font-size: 40px;&quot;&gt;&lt;b style=&quot;&quot;&gt;&lt;font style=&quot;font-size: 40px;&quot;&gt;Controll::LoginUI&lt;/font&gt;&lt;/b&gt;&lt;/p&gt;&lt;hr style=&quot;font-size: 40px;&quot; size=&quot;1&quot;&gt;&lt;p style=&quot;margin: 0px 0px 0px 4px; font-size: 40px;&quot;&gt;&lt;/p&gt;&lt;p style=&quot;margin: 0px 0px 0px 4px; font-size: 40px;&quot;&gt;&lt;span style=&quot;background-color: initial;&quot;&gt;selectLogin()&lt;/span&gt;&lt;br&gt;&lt;/p&gt;&lt;p style=&quot;margin: 0px 0px 0px 4px; font-size: 40px;&quot;&gt;&lt;br&gt;&lt;/p&gt;" style="verticalAlign=top;align=left;overflow=fill;fontSize=12;fontFamily=Helvetica;html=1;whiteSpace=wrap;" vertex="1" parent="WIyWlLk6GJQsqaUBKTNV-1">
          <mxGeometry x="1290" y="1460" width="870" height="370" as="geometry" />
        </mxCell>
        <mxCell id="xT75n4aC4hPQkBySnX-0-3" value="&lt;p style=&quot;margin: 4px 0px 0px; text-align: center; font-size: 40px;&quot;&gt;&lt;b style=&quot;&quot;&gt;&lt;font style=&quot;font-size: 40px;&quot;&gt;&amp;lt;&amp;lt;controll&amp;gt;&amp;gt;&lt;/font&gt;&lt;/b&gt;&lt;/p&gt;&lt;p style=&quot;margin: 4px 0px 0px; text-align: center; font-size: 40px;&quot;&gt;&lt;b style=&quot;&quot;&gt;&lt;font style=&quot;font-size: 40px;&quot;&gt;Controll::Register&lt;/font&gt;&lt;/b&gt;&lt;/p&gt;&lt;hr style=&quot;font-size: 40px;&quot; size=&quot;1&quot;&gt;&lt;p style=&quot;margin: 0px 0px 0px 4px; font-size: 40px;&quot;&gt;&lt;/p&gt;&lt;p style=&quot;margin: 0px 0px 0px 4px; font-size: 40px;&quot;&gt;&lt;font style=&quot;font-size: 40px;&quot;&gt;login()&lt;/font&gt;&lt;/p&gt;" style="verticalAlign=top;align=left;overflow=fill;fontSize=12;fontFamily=Helvetica;html=1;whiteSpace=wrap;" vertex="1" parent="WIyWlLk6GJQsqaUBKTNV-1">
          <mxGeometry x="2270" y="1470" width="870" height="370" as="geometry" />
        </mxCell>
        <mxCell id="xT75n4aC4hPQkBySnX-0-4" value="&lt;p style=&quot;margin: 4px 0px 0px; text-align: center; font-size: 40px;&quot;&gt;&lt;b style=&quot;&quot;&gt;&lt;font style=&quot;font-size: 40px;&quot;&gt;&amp;lt;&amp;lt;controll&amp;gt;&amp;gt;&lt;/font&gt;&lt;/b&gt;&lt;/p&gt;&lt;p style=&quot;margin: 4px 0px 0px; text-align: center; font-size: 40px;&quot;&gt;&lt;b style=&quot;&quot;&gt;&lt;font style=&quot;font-size: 40px;&quot;&gt;Controll::LogoutUI&lt;/font&gt;&lt;/b&gt;&lt;/p&gt;&lt;hr style=&quot;font-size: 40px;&quot; size=&quot;1&quot;&gt;&lt;p style=&quot;margin: 0px 0px 0px 4px; font-size: 40px;&quot;&gt;&lt;/p&gt;&lt;p style=&quot;margin: 0px 0px 0px 4px; font-size: 40px;&quot;&gt;&lt;span style=&quot;background-color: initial;&quot;&gt;selectLogout()&lt;/span&gt;&lt;br&gt;&lt;/p&gt;&lt;p style=&quot;margin: 0px 0px 0px 4px; font-size: 40px;&quot;&gt;&lt;br&gt;&lt;/p&gt;" style="verticalAlign=top;align=left;overflow=fill;fontSize=12;fontFamily=Helvetica;html=1;whiteSpace=wrap;" vertex="1" parent="WIyWlLk6GJQsqaUBKTNV-1">
          <mxGeometry x="3280" y="1000" width="870" height="370" as="geometry" />
        </mxCell>
        <mxCell id="xT75n4aC4hPQkBySnX-0-5" value="&lt;p style=&quot;margin: 4px 0px 0px; text-align: center; font-size: 40px;&quot;&gt;&lt;b style=&quot;&quot;&gt;&lt;font style=&quot;font-size: 40px;&quot;&gt;&amp;lt;&amp;lt;controll&amp;gt;&amp;gt;&lt;/font&gt;&lt;/b&gt;&lt;/p&gt;&lt;p style=&quot;margin: 4px 0px 0px; text-align: center; font-size: 40px;&quot;&gt;&lt;b style=&quot;&quot;&gt;&lt;font style=&quot;font-size: 40px;&quot;&gt;Controll::Logout&lt;/font&gt;&lt;/b&gt;&lt;/p&gt;&lt;hr style=&quot;font-size: 40px;&quot; size=&quot;1&quot;&gt;&lt;p style=&quot;margin: 0px 0px 0px 4px; font-size: 40px;&quot;&gt;&lt;/p&gt;&lt;p style=&quot;margin: 0px 0px 0px 4px; font-size: 40px;&quot;&gt;&lt;font style=&quot;font-size: 40px;&quot;&gt;logout()&lt;/font&gt;&lt;/p&gt;" style="verticalAlign=top;align=left;overflow=fill;fontSize=12;fontFamily=Helvetica;html=1;whiteSpace=wrap;" vertex="1" parent="WIyWlLk6GJQsqaUBKTNV-1">
          <mxGeometry x="4260" y="1010" width="870" height="370" as="geometry" />
        </mxCell>
        <mxCell id="xT75n4aC4hPQkBySnX-0-6" value="&lt;p style=&quot;margin: 4px 0px 0px; text-align: center; font-size: 40px;&quot;&gt;&lt;b style=&quot;&quot;&gt;&lt;font style=&quot;font-size: 40px;&quot;&gt;&amp;lt;&amp;lt;controll&amp;gt;&amp;gt;&lt;/font&gt;&lt;/b&gt;&lt;/p&gt;&lt;p style=&quot;margin: 4px 0px 0px; text-align: center; font-size: 40px;&quot;&gt;&lt;b style=&quot;&quot;&gt;&lt;font style=&quot;font-size: 40px;&quot;&gt;Controll::WithdrawalUI&lt;/font&gt;&lt;/b&gt;&lt;/p&gt;&lt;hr style=&quot;font-size: 40px;&quot; size=&quot;1&quot;&gt;&lt;p style=&quot;margin: 0px 0px 0px 4px; font-size: 40px;&quot;&gt;&lt;/p&gt;&lt;p style=&quot;margin: 0px 0px 0px 4px; font-size: 40px;&quot;&gt;selectWithdraw()&lt;br&gt;&lt;/p&gt;&lt;p style=&quot;margin: 0px 0px 0px 4px; font-size: 40px;&quot;&gt;&lt;br&gt;&lt;/p&gt;" style="verticalAlign=top;align=left;overflow=fill;fontSize=12;fontFamily=Helvetica;html=1;whiteSpace=wrap;" vertex="1" parent="WIyWlLk6GJQsqaUBKTNV-1">
          <mxGeometry x="3270" y="1410" width="870" height="370" as="geometry" />
        </mxCell>
        <mxCell id="xT75n4aC4hPQkBySnX-0-7" value="&lt;p style=&quot;margin: 4px 0px 0px; text-align: center; font-size: 40px;&quot;&gt;&lt;b style=&quot;&quot;&gt;&lt;font style=&quot;font-size: 40px;&quot;&gt;&amp;lt;&amp;lt;controll&amp;gt;&amp;gt;&lt;/font&gt;&lt;/b&gt;&lt;/p&gt;&lt;p style=&quot;margin: 4px 0px 0px; text-align: center; font-size: 40px;&quot;&gt;&lt;b style=&quot;&quot;&gt;&lt;font style=&quot;font-size: 40px;&quot;&gt;Controll::Withdraw&lt;/font&gt;&lt;/b&gt;&lt;/p&gt;&lt;hr style=&quot;font-size: 40px;&quot; size=&quot;1&quot;&gt;&lt;p style=&quot;margin: 0px 0px 0px 4px; font-size: 40px;&quot;&gt;&lt;/p&gt;&lt;p style=&quot;margin: 0px 0px 0px 4px; font-size: 40px;&quot;&gt;withdraw()&lt;br&gt;&lt;/p&gt;" style="verticalAlign=top;align=left;overflow=fill;fontSize=12;fontFamily=Helvetica;html=1;whiteSpace=wrap;" vertex="1" parent="WIyWlLk6GJQsqaUBKTNV-1">
          <mxGeometry x="4260" y="1430" width="870" height="370" as="geometry" />
        </mxCell>
      </root>
    </mxGraphModel>
  </diagram>
</mxfile>
